<svg width="159" height="70" viewBox="0 0 159 70" fill="none" xmlns="http://www.w3.org/2000/svg">
<path d="M36.7001 20.7401L29.2101 12.6001L20.4001 11.3301L14.3701 16.0301L13.5801 25.3301L14.9101 31.0001L19.1301 35.4701L24.6401 38.3901L36.7001 27.6201V20.7401Z" fill="#F6E81D"/>
<path d="M45.83 49.05C46.68 49.05 47.55 49.05 48.43 48.95C47.8175 51.6861 46.8068 54.3175 45.43 56.76C41.121 56.5569 36.8413 55.9407 32.65 54.92C29.25 54.22 25.74 53.49 21.92 53.05C15.4832 52.2227 8.94459 52.7437 2.72 54.58C1.81107 52.5405 1.13998 50.4031 0.72 48.21C2.9 47.05 10 44 21.08 45.28C24.57 45.68 27.92 46.38 31.16 47.05C35.968 48.2203 40.8842 48.8905 45.83 49.05ZM31.16 62.05C27.92 61.38 24.57 60.68 21.08 60.28C16.3244 59.6869 11.5016 59.9306 6.83 61L7.03 61.23C9.16676 63.8097 11.856 65.8761 14.899 67.2764C17.942 68.6767 21.2608 69.3751 24.61 69.32C30.23 69.4273 35.6797 67.389 39.85 63.62C37 63.27 34.09 62.68 31.16 62.08V62.05ZM43.16 22.42C39.0533 15.62 32.8767 8.14667 24.63 0C16.3633 8.15333 10.19 15.6367 6.11 22.45C2.17667 29.0233 0.14 35.04 0 40.5C6.98463 37.8693 14.5123 37.0104 21.91 38C22.83 38.11 23.73 38.23 24.62 38.37C22.1869 36.0715 20.0503 33.4781 18.26 30.65C16.9947 28.7381 16.2691 26.5201 16.16 24.23C16.0735 21.702 16.9368 19.2332 18.58 17.31C19.3166 16.424 20.2425 15.7144 21.2894 15.2333C22.3364 14.7522 23.4779 14.5119 24.63 14.53C25.7822 14.5111 26.9239 14.7511 27.971 15.2323C29.0181 15.7134 29.9439 16.4234 30.68 17.31C32.3189 19.2356 33.1817 21.7027 33.1 24.23C32.9945 26.5269 32.2688 28.7524 31 30.67C29.2025 33.4957 27.063 36.0887 24.63 38.39C27.42 38.81 30.06 39.39 32.63 39.89C38.56 41.12 43.77 42.19 49.25 41.53V41.12C49.2567 35.5 47.2233 29.2767 43.15 22.45L43.16 22.42Z" fill="url(#paint0_linear_5_29)"/>
<path d="M152.829 12.5405C154.785 12.5406 156.212 13.1406 157.146 14.2563C158.079 15.3689 158.509 16.9781 158.509 18.9702V29.2397H154.169V19.8706C154.169 18.8234 154.055 17.8706 153.664 17.1821C153.47 16.8403 153.207 16.5642 152.854 16.3726C152.501 16.1806 152.051 16.0698 151.479 16.0698C150.81 16.0699 150.278 16.2059 149.855 16.4438C149.434 16.6816 149.115 17.0246 148.877 17.4478C148.399 18.298 148.249 19.4688 148.249 20.7397V29.2397H143.909V12.8999H148.249V14.7798C149.238 13.3168 150.945 12.5405 152.829 12.5405Z" fill="#122E49" stroke="#122E49" stroke-width="0.2"/>
<path d="M133.422 12.5405C135.94 12.5405 137.994 13.5195 139.395 15.2241C140.793 16.927 141.533 19.3451 141.442 22.2134L141.439 22.3101H129.543C129.665 23.6126 130.177 24.5801 130.887 25.2261C131.617 25.8905 132.561 26.2202 133.513 26.2202C134.747 26.2201 135.999 25.781 136.816 24.4087L136.846 24.3599H141.305L141.256 24.4946C140.374 26.9265 137.971 29.6304 133.542 29.6304C130.921 29.6303 128.838 28.6521 127.412 27.0815C125.987 25.512 125.223 23.3566 125.223 21.0103C125.223 16.1593 128.593 12.5407 133.422 12.5405ZM133.393 15.77C132.632 15.77 131.762 16.0113 131.043 16.5806C130.346 17.1322 129.788 17.9964 129.608 19.2603H137.037C136.972 17.9775 136.488 17.1151 135.822 16.5688C135.136 16.0059 134.246 15.7701 133.393 15.77Z" fill="#122E49" stroke="#122E49" stroke-width="0.2"/>
<path d="M115.346 12.5405C117.864 12.5405 119.918 13.5195 121.318 15.2241C122.717 16.927 123.457 19.3451 123.366 22.2134L123.363 22.3101H111.467C111.589 23.6126 112.101 24.5801 112.811 25.2261C113.541 25.8905 114.484 26.2202 115.437 26.2202C116.671 26.2201 117.923 25.781 118.74 24.4087L118.77 24.3599H123.229L123.18 24.4946C122.298 26.9265 119.895 29.6304 115.466 29.6304C112.845 29.6303 110.762 28.6521 109.336 27.0815C107.911 25.512 107.147 23.3566 107.146 21.0103C107.146 16.1593 110.517 12.5407 115.346 12.5405ZM115.316 15.77C114.556 15.77 113.686 16.0113 112.967 16.5806C112.27 17.1322 111.712 17.9964 111.532 19.2603H118.961C118.895 17.9775 118.412 17.1151 117.746 16.5688C117.06 16.0059 116.169 15.7701 115.316 15.77Z" fill="#122E49" stroke="#122E49" stroke-width="0.2"/>
<path d="M106.269 17.1006L106.159 17.0898C105.562 17.0301 105.055 17 104.459 17C103.448 17 102.632 17.1861 102.067 17.7256C101.504 18.2645 101.169 19.1769 101.169 20.6797V29.2402H96.8291V12.9004H101.108V15.4023C101.55 14.5932 102.096 13.9999 102.736 13.5977C103.472 13.1357 104.324 12.9297 105.269 12.9297C105.544 12.9297 105.908 12.9601 106.18 12.9902L106.269 13.001V17.1006Z" fill="#122E49" stroke="#122E49" stroke-width="0.2"/>
<path d="M83.9507 6.90039C89.0924 6.90054 92.6194 9.89871 93.3188 13.9727L93.3394 14.0898H89.064L89.0444 14.0166C88.3996 11.7013 86.3184 10.5196 83.9204 10.5195C82.1299 10.5195 80.6147 11.1407 79.5454 12.3975C78.4744 13.6562 77.8403 15.5652 77.8403 18.1602C77.8404 20.7409 78.4448 22.7033 79.4985 24.0186C80.55 25.331 82.0571 26.0097 83.8901 26.0098C85.0464 26.0098 86.3825 25.7278 87.4263 25.0186C88.4652 24.3125 89.2202 23.1802 89.2202 21.46V21.2002H83.7905V17.4902H93.3804V29.2402H89.7944L89.7905 29.1445L89.6831 26.873C88.4002 28.5461 86.1836 29.6299 83.23 29.6299C80.1445 29.6298 77.6334 28.5099 75.895 26.5098C74.158 24.511 73.2007 21.6427 73.2007 18.1602C73.2007 14.7657 74.204 11.9492 76.0552 9.98047C77.9071 8.01095 80.5978 6.90039 83.9507 6.90039Z" fill="#122E49" stroke="#122E49" stroke-width="0.2"/>
<path d="M145.34 49.1006L145.23 49.0898C144.633 49.0301 144.126 49 143.53 49C142.519 49 141.703 49.1861 141.139 49.7256C140.575 50.2645 140.24 51.1769 140.24 52.6797V61.2402H135.9V44.9004H140.18V47.4023C140.621 46.5932 141.167 45.9999 141.808 45.5977C142.543 45.1357 143.395 44.9297 144.34 44.9297C144.615 44.9297 144.98 44.9601 145.251 44.9902L145.34 45.001V49.1006Z" fill="#122E49" stroke="#122E49" stroke-width="0.2"/>
<path d="M124.1 43.9004C126.618 43.9004 128.672 44.8794 130.072 46.584C131.471 48.2869 132.211 50.705 132.12 53.5732L132.117 53.6699H120.221C120.343 54.9724 120.855 55.94 121.564 56.5859C122.295 57.2504 123.238 57.5801 124.19 57.5801C125.424 57.58 126.677 57.1408 127.494 55.7686L127.523 55.7197H131.982L131.934 55.8545C131.052 58.2864 128.649 60.9902 124.22 60.9902C121.598 60.9902 119.516 60.012 118.09 58.4414C116.665 56.8718 115.9 54.7164 115.9 52.3701C115.9 47.5192 119.271 43.9006 124.1 43.9004ZM124.07 47.1299C123.31 47.1299 122.44 47.3711 121.721 47.9404C121.024 48.4921 120.466 49.3562 120.286 50.6201H127.715C127.649 49.3374 127.166 48.475 126.5 47.9287C125.814 47.3658 124.923 47.1299 124.07 47.1299Z" fill="#122E49" stroke="#122E49" stroke-width="0.2"/>
<path d="M105.1 43.9004C107.618 43.9004 109.672 44.8794 111.072 46.584C112.471 48.2869 113.211 50.705 113.12 53.5732L113.117 53.6699H101.221C101.343 54.9724 101.855 55.94 102.564 56.5859C103.295 57.2504 104.238 57.5801 105.19 57.5801C106.424 57.58 107.677 57.1408 108.494 55.7686L108.523 55.7197H112.982L112.934 55.8545C112.052 58.2864 109.649 60.9902 105.22 60.9902C102.598 60.9902 100.516 60.012 99.0898 58.4414C97.6647 56.8718 96.9004 54.7164 96.9004 52.3701C96.9004 47.5192 100.271 43.9006 105.1 43.9004ZM105.07 47.1299C104.31 47.1299 103.44 47.3711 102.721 47.9404C102.024 48.4921 101.466 49.3562 101.286 50.6201H108.715C108.649 49.3374 108.166 48.475 107.5 47.9287C106.814 47.3658 105.923 47.1299 105.07 47.1299Z" fill="#122E49" stroke="#122E49" stroke-width="0.2"/>
<path d="M83.6504 37.9004C88.7921 37.9005 92.3191 40.8987 93.0186 44.9727L93.0391 45.0898H88.7637L88.7441 45.0166C88.0993 42.7013 86.0181 41.5196 83.6201 41.5195C81.8296 41.5195 80.3144 42.1407 79.2451 43.3975C78.1741 44.6562 77.54 46.5652 77.54 49.1602C77.5401 51.7409 78.1445 53.7033 79.1982 55.0186C80.2497 56.331 81.7568 57.0097 83.5898 57.0098C84.7461 57.0098 86.0822 56.7278 87.126 56.0186C88.1649 55.3125 88.9199 54.1802 88.9199 52.46V52.2002H83.4902V48.4902H93.0801V60.2402H89.4941L89.4902 60.1445L89.3828 57.873C88.0999 59.5461 85.8833 60.6299 82.9297 60.6299C79.8442 60.6298 77.3331 59.5099 75.5947 57.5098C73.8577 55.511 72.9004 52.6427 72.9004 49.1602C72.9004 45.7657 73.9037 42.9492 75.7549 40.9805C77.6068 39.0109 80.2975 37.9004 83.6504 37.9004Z" fill="#122E49" stroke="#122E49" stroke-width="0.2"/>
<defs>
<linearGradient id="paint0_linear_5_29" x1="15.46" y1="14.92" x2="32.44" y2="64.85" gradientUnits="userSpaceOnUse">
<stop offset="0.24" stop-color="#53B57C"/>
<stop offset="0.89" stop-color="#36A9E1"/>
</linearGradient>
</defs>
</svg>
